<svg xmlns="http://www.w3.org/2000/svg" width="23.176" height="19.061" viewBox="0 0 23.176 19.061">
  <path id="Icon_awesome-twitter" data-name="Icon awesome-twitter" d="M19.309,7.811c.014.194.014.389.014.583,0,5.931-4.438,12.764-12.549,12.764A12.312,12.312,0,0,1,0,19.145a8.972,8.972,0,0,0,1.065.056,8.739,8.739,0,0,0,5.476-1.917,4.429,4.429,0,0,1-4.124-3.111,5.471,5.471,0,0,0,.833.069,4.591,4.591,0,0,0,1.161-.153,4.468,4.468,0,0,1-3.537-4.4V9.631a4.386,4.386,0,0,0,1.994.569A4.544,4.544,0,0,1,1.5,4.2,12.469,12.469,0,0,0,10.6,8.895a5.148,5.148,0,0,1-.109-1.028A4.447,4.447,0,0,1,14.9,3.381,4.366,4.366,0,0,1,18.121,4.8a8.6,8.6,0,0,0,2.8-1.083,4.461,4.461,0,0,1-1.939,2.472,8.725,8.725,0,0,0,2.54-.694,9.571,9.571,0,0,1-2.212,2.319Z" transform="translate(0.274 -2.598)" fill="none" stroke="#7d7272" stroke-width="1"/>
</svg>
