<svg xmlns="http://www.w3.org/2000/svg" width="25.344" height="27.492" viewBox="0 0 25.344 27.492">
  <g id="Layer_1_1_" transform="translate(-1 -1.117)">
    <path id="Path_169" data-name="Path 169" d="M1,22.988H16.312v5.621l3.168-2.072,3.168,2.072V22.988h3.7V1.117H1Zm20.732-3.906c-.048.052-.1.1-.148.15-.029.028-.055.057-.084.083s-.068.055-.1.083a3.008,3.008,0,0,1-1.567.689l-.029,0a2.926,2.926,0,0,1-.645,0l-.029,0A3.01,3.01,0,0,1,17.56,19.4c-.034-.028-.069-.054-.1-.083s-.056-.056-.084-.083c-.05-.049-.1-.1-.148-.15a3.605,3.605,0,0,1-.916-2.425A3.323,3.323,0,0,1,19.478,13.2a3.323,3.323,0,0,1,3.168,3.453A3.593,3.593,0,0,1,21.732,19.082Zm-.14,7.494L19.48,25.195l-2.112,1.381v-5.93c.018.012.038.019.056.03a4.131,4.131,0,0,0,.433.231l.02.008a3.881,3.881,0,0,0,3.206,0l.02-.008a4.026,4.026,0,0,0,.433-.231c.018-.011.039-.018.056-.03v5.93ZM2.056,2.268H25.288V21.837h-2.64V19.692A4.823,4.823,0,0,0,23.7,16.657a4.432,4.432,0,0,0-4.224-4.6,4.432,4.432,0,0,0-4.224,4.6,4.823,4.823,0,0,0,1.056,3.035v2.145H2.056Z" fill="#b0bec5"/>
    <rect id="Rectangle_297" data-name="Rectangle 297" width="11" height="1" transform="translate(8.344 5.117)" fill="#b0bec5"/>
    <rect id="Rectangle_298" data-name="Rectangle 298" width="10" height="1" transform="translate(8.344 8.117)" fill="#b0bec5"/>
    <rect id="Rectangle_299" data-name="Rectangle 299" width="6" height="1" transform="translate(5.344 19.117)" fill="#b0bec5"/>
  </g>
</svg>
