<svg width="128" height="128" viewBox="0 0 128 128" fill="none" xmlns="http://www.w3.org/2000/svg">
<g clip-path="url(#clip0)">
<path d="M116.73 31.83C116.494 31.5141 116.199 31.2476 115.86 31.046C115.522 30.8443 115.146 30.7114 114.756 30.6547C114.366 30.5981 113.969 30.6188 113.587 30.7158C113.205 30.8128 112.846 30.9841 112.53 31.22L64.14 67.34C63.9669 67.4698 63.7564 67.54 63.54 67.54C63.3237 67.54 63.1131 67.4698 62.94 67.34L15.5 31.06C15.1868 30.821 14.8296 30.646 14.4488 30.5451C14.068 30.4441 13.671 30.4191 13.2805 30.4716C12.89 30.5241 12.5137 30.6529 12.1731 30.8508C11.8324 31.0487 11.534 31.3118 11.295 31.625C11.056 31.9382 10.8811 32.2954 10.7801 32.6762C10.6791 33.0571 10.6542 33.454 10.7067 33.8445C10.7591 34.235 10.888 34.6113 11.0859 34.952C11.2838 35.2926 11.5468 35.591 11.86 35.83L49.16 64.36L12.27 92.16C11.9522 92.397 11.6842 92.6943 11.4813 93.0349C11.2784 93.3756 11.1446 93.7528 11.0875 94.1451C11.0304 94.5374 11.0511 94.9372 11.1485 95.3215C11.2459 95.7058 11.418 96.0672 11.655 96.385C11.8921 96.7028 12.1894 96.9708 12.53 97.1737C12.8706 97.3766 13.2478 97.5104 13.6402 97.5675C14.0325 97.6246 14.4322 97.6039 14.8165 97.5065C15.2009 97.4091 15.5622 97.237 15.88 97L54.11 68.14L59.29 72.14C60.4979 73.0645 61.974 73.5705 63.495 73.5813C65.016 73.5921 66.4992 73.1072 67.72 72.2L73.16 68.14L111.84 97C112.156 97.2357 112.515 97.4069 112.897 97.5038C113.279 97.6008 113.676 97.6215 114.066 97.5648C114.456 97.5082 114.831 97.3753 115.17 97.1737C115.509 96.9721 115.804 96.7058 116.04 96.39C116.276 96.0742 116.447 95.715 116.544 95.333C116.641 94.951 116.662 94.5537 116.605 94.1637C116.548 93.7736 116.415 93.3986 116.214 93.06C116.012 92.7213 115.746 92.4257 115.43 92.19L78.17 64.35L116.12 36C116.749 35.5247 117.166 34.8206 117.281 34.0401C117.395 33.2597 117.197 32.4657 116.73 31.83V31.83Z" fill="#21CCB5"/>
<path d="M113 19H15C11.0218 19 7.20644 20.5804 4.3934 23.3934C1.58035 26.2064 0 30.0218 0 34L0 94C0 97.9782 1.58035 101.794 4.3934 104.607C7.20644 107.42 11.0218 109 15 109H113C116.978 109 120.794 107.42 123.607 104.607C126.42 101.794 128 97.9782 128 94V34C128 30.0218 126.42 26.2064 123.607 23.3934C120.794 20.5804 116.978 19 113 19ZM122 94C122 96.3869 121.052 98.6761 119.364 100.364C117.676 102.052 115.387 103 113 103H15C12.6131 103 10.3239 102.052 8.63604 100.364C6.94821 98.6761 6 96.3869 6 94V34C6 31.6131 6.94821 29.3239 8.63604 27.636C10.3239 25.9482 12.6131 25 15 25H113C115.387 25 117.676 25.9482 119.364 27.636C121.052 29.3239 122 31.6131 122 34V94Z" fill="#21CCB5"/>
</g>
<defs>
<clipPath id="clip0">
<rect width="128" height="128" fill="white"/>
</clipPath>
</defs>
</svg>
