<svg xmlns="http://www.w3.org/2000/svg" width="22.901" height="23" viewBox="0 0 22.901 23">
  <g id="واتساپ" transform="translate(-0.599 -0.5)">
    <g id="Group_807" data-name="Group 807">
      <g id="Group_806" data-name="Group 806">
        <path id="Path_96" data-name="Path 96" d="M12,23.5a10.9,10.9,0,0,1-6.1-1.8L1.9,23a.44.44,0,0,1-.5-.1.44.44,0,0,1-.1-.5l1.3-3.8a11.59,11.59,0,0,1-2-6.5A11.439,11.439,0,0,1,12,.5,11.566,11.566,0,0,1,23.5,12,11.566,11.566,0,0,1,12,23.5ZM6,20.7a.367.367,0,0,1,.3.1,10.643,10.643,0,0,0,5.8,1.7A10.5,10.5,0,1,0,1.5,12a10.657,10.657,0,0,0,2,6.2.749.749,0,0,1,.1.5L2.5,21.9l3.3-1C5.9,20.7,5.9,20.7,6,20.7Zm9.6-2a10.633,10.633,0,0,1-3.4-.9,13.865,13.865,0,0,1-5.6-4.9l-.1-.1A7.369,7.369,0,0,1,5.1,9.1a4.437,4.437,0,0,1,1.2-3,2.035,2.035,0,0,1,1.5-.6h.3c.6,0,.9.2,1.2.9l.3.6c.3.7.7,1.6.7,1.7a.9.9,0,0,1,0,1,2.092,2.092,0,0,1-.4.6l-.3.3-.3.3c.2.1.1.1.1.1a11.984,11.984,0,0,0,1.7,2.1,11.505,11.505,0,0,0,2.3,1.5h.1c.1,0,.1.1.2,0a4.308,4.308,0,0,0,.7-1l.1-.1a1.185,1.185,0,0,1,.9-.5,1.087,1.087,0,0,1,.5.1,14.511,14.511,0,0,1,2.2,1.1l.2.1c.3.1.5.2.6.5a3.153,3.153,0,0,1-.1,1.9,3.532,3.532,0,0,1-2.5,1.9C16.1,18.6,15.9,18.7,15.6,18.7ZM7.9,6.5a1.884,1.884,0,0,0-.8.2A3.075,3.075,0,0,0,6.1,9a5.559,5.559,0,0,0,1.2,3l.1.1a12.423,12.423,0,0,0,5.2,4.6,9.076,9.076,0,0,0,3,.9.749.749,0,0,0,.5-.1,3.038,3.038,0,0,0,1.8-1.2,2.8,2.8,0,0,0,.2-1.1c-.1,0-.1-.1-.2-.1l-.2-.1a13.9,13.9,0,0,0-2.1-1c-.1,0-.1-.1-.2.1l-.1.1c-.3.4-.6.8-.8,1.1a1.227,1.227,0,0,1-1.3.2h-.1a11.045,11.045,0,0,1-2.6-1.6,11.094,11.094,0,0,1-1.9-2.3.985.985,0,0,1,.2-1.3A.758.758,0,0,1,9,9.9l.2-.2a1.048,1.048,0,0,0,.3-.4V9.1a9.248,9.248,0,0,1-.8-1.7l-.2-.6a1.238,1.238,0,0,0-.2-.3H7.9Z"/>
      </g>
    </g>
  </g>
</svg>
