<svg xmlns="http://www.w3.org/2000/svg" width="11.069" height="13.204" viewBox="0 0 11.069 13.204">
  <path id="Instagram" d="M9.153,3.078a.737.737,0,0,1-.664.792.737.737,0,0,1-.664-.792.737.737,0,0,1,.664-.792A.737.737,0,0,1,9.153,3.078ZM5.535,8.8A2.046,2.046,0,0,1,3.69,6.6,2.046,2.046,0,0,1,5.535,4.4,2.046,2.046,0,0,1,7.38,6.6,2.046,2.046,0,0,1,5.535,8.8Zm0-5.591A3.153,3.153,0,0,0,2.693,6.6a3.153,3.153,0,0,0,2.842,3.39A3.153,3.153,0,0,0,8.377,6.6,3.153,3.153,0,0,0,5.535,3.212Zm0-2.022c1.478,0,1.653.007,2.236.038A2.636,2.636,0,0,1,8.8,1.455a1.72,1.72,0,0,1,.636.494,2.118,2.118,0,0,1,.414.759,4.277,4.277,0,0,1,.191,1.226c.027.7.032.905.032,2.668s-.006,1.972-.032,2.668A4.273,4.273,0,0,1,9.849,10.5a2.119,2.119,0,0,1-.414.759,1.718,1.718,0,0,1-.636.494,2.638,2.638,0,0,1-1.028.227c-.584.032-.759.038-2.236.038s-1.653-.007-2.237-.038a2.636,2.636,0,0,1-1.028-.227,1.72,1.72,0,0,1-.636-.494A2.119,2.119,0,0,1,1.22,10.5,4.277,4.277,0,0,1,1.029,9.27C1,8.574,1,8.365,1,6.6S1,4.631,1.029,3.935A4.273,4.273,0,0,1,1.22,2.709a2.119,2.119,0,0,1,.414-.759,1.718,1.718,0,0,1,.636-.494A2.638,2.638,0,0,1,3.3,1.228C3.882,1.2,4.057,1.19,5.535,1.19Zm0-1.19c-1.5,0-1.692.008-2.282.04A3.5,3.5,0,0,0,1.909.347a2.717,2.717,0,0,0-.98.762A3.354,3.354,0,0,0,.291,2.278a5.672,5.672,0,0,0-.257,1.6C.006,4.584,0,4.809,0,6.6S.006,8.62.033,9.324a5.672,5.672,0,0,0,.257,1.6A3.354,3.354,0,0,0,.929,12.1a2.718,2.718,0,0,0,.98.762,3.5,3.5,0,0,0,1.343.307c.59.032.779.04,2.282.04s1.692-.008,2.282-.04a3.5,3.5,0,0,0,1.343-.307,2.718,2.718,0,0,0,.98-.762,3.356,3.356,0,0,0,.638-1.169,5.672,5.672,0,0,0,.257-1.6c.027-.7.033-.929.033-2.722s-.006-2.018-.033-2.722a5.672,5.672,0,0,0-.257-1.6,3.356,3.356,0,0,0-.638-1.169A2.718,2.718,0,0,0,9.16.347,3.5,3.5,0,0,0,7.817.04C7.226.008,7.038,0,5.535,0Z" fill="#00d8ff" fill-rule="evenodd"/>
</svg>
