<svg xmlns="http://www.w3.org/2000/svg" width="13.134" height="15.667" viewBox="0 0 13.134 15.667">
  <path id="تلگرام" d="M14.707,3.091a.4.4,0,0,0-.5-.112L2.067,9.395a.777.777,0,0,0-.005,1.247l2.755,1.5L6.15,17.075a.618.618,0,0,0,.267.375.329.329,0,0,0,.079.022c.022.015.041.037.067.037.008,0,.013-.01.021-.012s.027.012.04.012a.434.434,0,0,0,.339-.183l1.6-2.041,3.305,3.188a.416.416,0,0,0,.289.125.4.4,0,0,0,.181-.046.652.652,0,0,0,.306-.488L14.873,3.74A.811.811,0,0,0,14.707,3.091ZM5.14,12.08l5.27-3.918L6.456,12.933s0,0,0,0a.253.253,0,0,0-.051.155V13.1s0,0,0,0v3.645Zm1.6,4.934a.2.2,0,0,1-.021.018V13.515L8.295,15.03Zm5.586.964a.233.233,0,0,1-.109.175.139.139,0,0,1-.168-.029L8.666,14.858s0,0,0,0,0,0-.005,0L6.818,13.075l4.857-5.86a.273.273,0,0,0,.024-.286.136.136,0,0,0-.208-.064L4.932,11.741l-2.75-1.5a.276.276,0,0,1,0-.444L14.321,3.381a.141.141,0,0,1,.179.04.288.288,0,0,1,.059.232Z" transform="translate(-1.75 -2.932)" fill="#00d8ff"/>
</svg>
