<svg xmlns="http://www.w3.org/2000/svg" width="18.625" height="22.218" viewBox="0 0 18.625 22.218">
  <path id="تلگرام" d="M20.125,3.158A.567.567,0,0,0,19.411,3L2.2,12.1a1.1,1.1,0,0,0-.007,1.769L6.1,16,7.99,22.99a.876.876,0,0,0,.379.532.467.467,0,0,0,.112.032c.031.021.058.053.1.053.012,0,.019-.015.03-.017s.038.017.057.017a.615.615,0,0,0,.481-.26l2.264-2.895L16.1,24.972a.59.59,0,0,0,.41.178.56.56,0,0,0,.257-.065.925.925,0,0,0,.434-.692L20.36,4.078A1.15,1.15,0,0,0,20.125,3.158ZM6.557,15.9l7.474-5.556L8.424,17.115s0,0,0,0a.358.358,0,0,0-.073.221v.017s0,0,0,0,0,0,0,0V22.53Zm2.275,7a.28.28,0,0,1-.03.026V17.94l2.229,2.149Zm7.921,1.367a.331.331,0,0,1-.154.247.2.2,0,0,1-.238-.04l-4.8-4.631s0,0,0,0,0,0-.007,0L8.937,17.316l6.888-8.31A.387.387,0,0,0,15.86,8.6a.193.193,0,0,0-.3-.091l-9.3,6.915L2.361,13.3a.392.392,0,0,1,0-.63l17.213-9.1a.2.2,0,0,1,.254.056.409.409,0,0,1,.084.33Z" transform="translate(-1.75 -2.932)" fill="#14c5e1"/>
</svg>
