<svg xmlns="http://www.w3.org/2000/svg" width="10" height="11.667" viewBox="0 0 10 11.667">
  <g id="Group_1595" data-name="Group 1595" transform="translate(-387 -52.333)">
    <path id="Path_174" data-name="Path 174" d="M11.917,7.833A2.917,2.917,0,1,0,9,4.917,2.917,2.917,0,0,0,11.917,7.833Zm0-5A2.083,2.083,0,1,1,9.833,4.917,2.083,2.083,0,0,1,11.917,2.833Z" transform="translate(380.083 50.333)"/>
    <path id="Path_175" data-name="Path 175" d="M9.417,18H8.583A4.583,4.583,0,0,0,4,22.583.417.417,0,0,0,4.417,23h9.167A.417.417,0,0,0,14,22.583,4.583,4.583,0,0,0,9.417,18ZM4.858,22.167a3.75,3.75,0,0,1,3.725-3.333h.833a3.75,3.75,0,0,1,3.725,3.333Z" transform="translate(383 41)"/>
  </g>
</svg>
