<svg id="فروشنده" xmlns="http://www.w3.org/2000/svg" width="25" height="25" viewBox="0 0 25 25">
  <g id="Group_1533" data-name="Group 1533" transform="translate(0 0)">
    <g id="Group_1532" data-name="Group 1532">
      <path id="Path_165" data-name="Path 165" d="M25,12.451V10.683L22.055,7.739a3.666,3.666,0,0,0-3.648-3.345H17.233A2.927,2.927,0,0,0,14.7,0H13.233V.733a.734.734,0,0,1-.733.733H9.565A2.2,2.2,0,0,0,7.5,4.395H6.591A3.666,3.666,0,0,0,2.945,7.738L0,10.683v1.768a3.659,3.659,0,0,0,1.465,2.927V23.53H0V25H25V23.535H23.535V15.383A3.659,3.659,0,0,0,25,12.451ZM21.035,8.789,22.5,10.254H18.722L17.6,8.789Zm-3.408,2.935v.733a2.2,2.2,0,1,1-4.395,0v-.733Zm-4.395-1.47V8.789h2.528l1.121,1.465ZM9.565,2.935H12.5A2.2,2.2,0,0,0,14.572,1.47H14.7a1.467,1.467,0,1,1,0,2.935H9.565a.735.735,0,0,1,0-1.47ZM6.587,5.87H18.409A2.2,2.2,0,0,1,20.48,7.335H4.52A2.2,2.2,0,0,1,6.591,5.86ZM3.961,8.8H7.373l-1.1,1.45H2.5Zm-2.5,3.662v-.733H5.909v.733a2.252,2.252,0,0,1-2.246,2.2,2.2,2.2,0,0,1-2.2-2.212Zm10.3,11.087H2.935v-7.5a3.665,3.665,0,0,0,.733.074A3.728,3.728,0,0,0,6.63,14.636a3.657,3.657,0,0,0,5.135.742Zm0-11.087a2.2,2.2,0,0,1-4.395,0v-.733h4.395Zm0-2.2H8.105l1.1-1.48h2.563Zm10.3,13.265H13.233V15.383a3.657,3.657,0,0,0,5.135-.742,3.727,3.727,0,0,0,2.971,1.477,3.666,3.666,0,0,0,.733-.074Zm-.733-8.887a2.252,2.252,0,0,1-2.246-2.2v-.733H23.53v.733a2.2,2.2,0,0,1-2.192,2.2Z" transform="translate(0 0)" fill="#86dbdb"/>
    </g>
  </g>
  <g id="Group_1535" data-name="Group 1535" transform="translate(14.286 17.857)">
    <g id="Group_1534" data-name="Group 1534" transform="translate(0 0)">
      <rect id="Rectangle_292" data-name="Rectangle 292" width="2" height="1" transform="translate(-0.286 0.143)" fill="#86dbdb"/>
    </g>
  </g>
  <g id="Group_1537" data-name="Group 1537" transform="translate(8.571 17.857)">
    <g id="Group_1536" data-name="Group 1536" transform="translate(0 0)">
      <rect id="Rectangle_293" data-name="Rectangle 293" width="2" height="1" transform="translate(0.429 0.143)" fill="#86dbdb"/>
    </g>
  </g>
</svg>
