<svg xmlns="http://www.w3.org/2000/svg" width="25.046" height="30.485" viewBox="0 0 25.046 30.485">
  <g id="Group_1635" data-name="Group 1635" transform="translate(-857 -1306.667)">
    <g id="مراکز_خرید" data-name="مراکز خرید" transform="translate(857 1306.667)">
      <g id="Group_1618" data-name="Group 1618" transform="translate(8.859)">
        <g id="Group_1617" data-name="Group 1617" transform="translate(0)">
          <path id="Path_176" data-name="Path 176" d="M84.589,3.767a4.392,4.392,0,0,0-7.9-1.963.517.517,0,1,0,.834.609,3.359,3.359,0,0,1,6.039,1.5.517.517,0,0,0,.511.444.553.553,0,0,0,.074-.005A.517.517,0,0,0,84.589,3.767Z" transform="translate(-76.593)" fill="#70d8d8"/>
        </g>
      </g>
      <g id="Group_1620" data-name="Group 1620" transform="translate(1.033 6.717)">
        <g id="Group_1619" data-name="Group 1619">
          <path id="Path_177" data-name="Path 177" d="M45.093,47.206l-1.5-2.584a.5.5,0,0,0-.428-.251H41.73a.517.517,0,0,0,0,1.033h1.153l.9,1.55H23.567l.9-1.55h.529a.517.517,0,0,0,0-1.033h-.812a.5.5,0,0,0-.428.251l-1.5,2.584a.533.533,0,0,0-.006.521.5.5,0,0,0,.435.262h21.98a.5.5,0,0,0,.435-.262A.532.532,0,0,0,45.093,47.206Z" transform="translate(-22.185 -44.372)" fill="#70d8d8"/>
        </g>
      </g>
      <g id="Group_1622" data-name="Group 1622" transform="translate(12.832 2.895)">
        <g id="Group_1621" data-name="Group 1621" transform="translate(0)">
          <path id="Path_178" data-name="Path 178" d="M113.874,21.018a.516.516,0,0,0-.321-.231l-7.044-1.647a.516.516,0,0,0-.621.385l-.531,2.271a.517.517,0,0,0,1.006.235l.414-1.767,6.037,1.412-.949,4.056a.516.516,0,0,0,.385.62.523.523,0,0,0,.118.014.516.516,0,0,0,.5-.4l1.066-4.559A.515.515,0,0,0,113.874,21.018Z" transform="translate(-105.343 -19.126)" fill="#70d8d8"/>
        </g>
      </g>
      <g id="Group_1624" data-name="Group 1624" transform="translate(3.048 1.57)">
        <g id="Group_1623" data-name="Group 1623">
          <path id="Path_179" data-name="Path 179" d="M45.637,14.812l-.471-3.982a.517.517,0,0,0-.574-.453L35.95,11.4a.517.517,0,0,0-.452.574l.785,6.641a.517.517,0,0,0,.513.456.564.564,0,0,0,.061,0,.517.517,0,0,0,.452-.574l-.724-6.129,7.616-.9.41,3.469a.517.517,0,0,0,1.026-.121Z" transform="translate(-35.494 -10.374)" fill="#70d8d8"/>
        </g>
      </g>
      <g id="Group_1626" data-name="Group 1626" transform="translate(6.556 4.961)">
        <g id="Group_1625" data-name="Group 1625" transform="translate(0)">
          <path id="Path_180" data-name="Path 180" d="M71.365,37.43,70.34,33.165a.516.516,0,0,0-.623-.381l-8.324,2a.517.517,0,0,0-.382.623l.513,2.132a.517.517,0,1,0,1-.242l-.392-1.629,7.319-1.76.9,3.762a.517.517,0,0,0,1-.242Z" transform="translate(-60.997 -32.769)" fill="#70d8d8"/>
        </g>
      </g>
      <g id="Group_1628" data-name="Group 1628" transform="translate(0 9.301)">
        <g id="Group_1627" data-name="Group 1627" transform="translate(0)">
          <path id="Path_181" data-name="Path 181" d="M39.4,61.931a.508.508,0,0,0-.5-.49H16.861a.508.508,0,0,0-.5.49l-1,20.151a.526.526,0,0,0,.137.382.5.5,0,0,0,.363.161H39.9a.5.5,0,0,0,.364-.161.527.527,0,0,0,.137-.382ZM16.387,81.592l.951-19.118H38.426l.951,19.118Z" transform="translate(-15.359 -61.441)" fill="#70d8d8"/>
        </g>
      </g>
      <g id="Group_1630" data-name="Group 1630" transform="translate(14.713 11.367)">
        <g id="Group_1629" data-name="Group 1629" transform="translate(0)">
          <path id="Path_182" data-name="Path 182" d="M117.6,75.093a1.55,1.55,0,1,0,1.55,1.55A1.552,1.552,0,0,0,117.6,75.093Zm0,2.067a.517.517,0,1,1,.517-.517A.517.517,0,0,1,117.6,77.16Z" transform="translate(-116.052 -75.093)" fill="#70d8d8"/>
        </g>
      </g>
      <g id="Group_1632" data-name="Group 1632" transform="translate(7.232 11.367)">
        <g id="Group_1631" data-name="Group 1631">
          <path id="Path_183" data-name="Path 183" d="M66.4,75.093a1.55,1.55,0,1,0,1.55,1.55A1.552,1.552,0,0,0,66.4,75.093Zm0,2.067a.517.517,0,1,1,.517-.517A.517.517,0,0,1,66.4,77.16Z" transform="translate(-64.852 -75.093)" fill="#70d8d8"/>
        </g>
      </g>
      <g id="Group_1634" data-name="Group 1634" transform="translate(8.131 12.917)">
        <g id="Group_1633" data-name="Group 1633">
          <path id="Path_184" data-name="Path 184" d="M79.946,85.333h-.04a.517.517,0,0,0-.517.517.511.511,0,0,0,.04.2v2.643a3.359,3.359,0,0,1-6.717,0V85.85a.517.517,0,1,0-1.033,0v2.842a4.392,4.392,0,1,0,8.784,0V85.85A.517.517,0,0,0,79.946,85.333Z" transform="translate(-71.679 -85.333)" fill="#70d8d8"/>
        </g>
      </g>
    </g>
  </g>
</svg>
