<svg xmlns="http://www.w3.org/2000/svg" width="21.968" height="21.861" viewBox="0 0 21.968 21.861">
  <g id="Group_1808" data-name="Group 1808" transform="translate(0 0)">
    <rect id="Rectangle_318" data-name="Rectangle 318" width="11.562" height="0.771" transform="translate(5.01 3.083)" fill="#3cc"/>
    <rect id="Rectangle_319" data-name="Rectangle 319" width="7.708" height="0.771" transform="translate(7.323 5.396)" fill="#3cc"/>
    <g id="Group_1781" data-name="Group 1781">
      <g id="Group_1786" data-name="Group 1786">
        <path id="Path_203" data-name="Path 203" d="M1,18.508H14.272v4.47l2.746-1.648,2.746,1.648v-4.47h3.2V1.117H1ZM18.97,15.4c-.041.042-.085.08-.129.119-.025.022-.048.045-.073.066s-.059.044-.088.066a2.727,2.727,0,0,1-1.358.548l-.025,0c-.092.009-.185.014-.28.014s-.188-.005-.28-.014l-.025,0a2.729,2.729,0,0,1-1.358-.548c-.029-.022-.059-.043-.088-.066s-.049-.044-.073-.066c-.043-.039-.087-.077-.129-.119a2.745,2.745,0,1,1,3.906,0Zm-.121,5.959-1.831-1.1-1.831,1.1V16.646c.016.009.033.015.049.024a3.7,3.7,0,0,0,.375.184l.017.006a3.641,3.641,0,0,0,2.779,0l.017-.006a3.605,3.605,0,0,0,.375-.184c.016-.009.033-.015.049-.024v4.716ZM1.915,2.032H22.053V17.593H19.764V15.888a3.661,3.661,0,1,0-5.492,0v1.705H1.915Z" transform="translate(-1 -1.117)" fill="#3cc"/>
      </g>
    </g>
  </g>
</svg>
