<svg width="24" height="24" viewBox="0 0 24 24" fill="none" xmlns="http://www.w3.org/2000/svg">
<path fill-rule="evenodd" clip-rule="evenodd" d="M12.8999 1.5C15.2999 1.65 17.5499 2.85 19.1999 4.5C21.1499 6.6 22.1999 9.15 22.1999 12.15C22.1999 14.55 21.2999 16.8 19.7999 18.75C18.2999 20.55 16.1999 21.9 13.7999 22.35C11.3999 22.8 8.99994 22.5 6.89994 21.3C4.79994 20.1 3.14994 18.3 2.24994 16.05C1.34994 13.8 1.19994 11.25 1.94994 9C2.69994 6.6 4.04994 4.65 6.14994 3.3C8.09994 1.95 10.4999 1.35 12.8999 1.5ZM13.6499 20.85C15.5999 20.4 17.3999 19.35 18.7499 17.7C19.9499 16.05 20.6999 14.1 20.5499 12C20.5499 9.6 19.6499 7.2 17.9999 5.55C16.4999 4.05 14.6999 3.15 12.5999 3C10.6499 2.85 8.54994 3.3 6.89994 4.5C5.24994 5.7 4.04994 7.35 3.44994 9.45C2.84994 11.4 2.84994 13.5 3.74994 15.45C4.64994 17.4 5.99994 18.9 7.79994 19.95C9.59994 21 11.6999 21.3 13.6499 20.85V20.85ZM11.8499 11.25L15.4499 7.5L16.4999 8.55L12.8999 12.3L16.4999 16.05L15.4499 17.1L11.8499 13.35L8.24994 17.1L7.19994 16.05L10.7999 12.3L7.19994 8.55L8.24994 7.5L11.8499 11.25V11.25Z" fill="#DA2222"/>
</svg>
