<svg width="24" height="24" viewBox="0 0 24 24" fill="none" xmlns="http://www.w3.org/2000/svg">
<path d="M11.9997 1.33333C9.89001 1.33333 7.82772 1.95892 6.0736 3.13099C4.31947 4.30306 2.9523 5.96896 2.14496 7.91804C1.33763 9.86712 1.12639 12.0118 1.53797 14.081C1.94955 16.1501 2.96545 18.0507 4.45721 19.5425C5.94897 21.0342 7.84959 22.0501 9.91872 22.4617C11.9878 22.8733 14.1326 22.662 16.0816 21.8547C18.0307 21.0474 19.6966 19.6802 20.8687 17.9261C22.0408 16.172 22.6663 14.1097 22.6663 12C22.6663 9.17102 21.5425 6.45791 19.5422 4.45753C17.5418 2.45714 14.8287 1.33333 11.9997 1.33333V1.33333ZM11.9997 21.3333C10.1537 21.3333 8.34922 20.7859 6.81436 19.7604C5.2795 18.7348 4.08322 17.2772 3.3768 15.5717C2.67039 13.8663 2.48555 11.9896 2.84568 10.1792C3.20581 8.36867 4.09473 6.70563 5.40002 5.40034C6.70531 4.09505 8.36835 3.20613 10.1788 2.846C11.9893 2.48587 13.8659 2.67071 15.5714 3.37712C17.2768 4.08354 18.7345 5.27982 19.7601 6.81468C20.7856 8.34953 21.333 10.154 21.333 12C21.333 14.4754 20.3497 16.8493 18.5993 18.5997C16.849 20.35 14.475 21.3333 11.9997 21.3333Z" fill="#008716"/>
<path d="M18.6669 8.06667C18.542 7.9425 18.3731 7.87281 18.1969 7.87281C18.0208 7.87281 17.8519 7.9425 17.7269 8.06667L10.3269 15.4333L6.32695 11.4333C6.20495 11.3016 6.03562 11.2237 5.85621 11.2169C5.6768 11.21 5.50201 11.2747 5.37028 11.3967C5.23856 11.5187 5.16069 11.688 5.15382 11.8674C5.14694 12.0468 5.21162 12.2216 5.33362 12.3533L10.3269 17.3333L18.6669 9.01334C18.7294 8.95136 18.779 8.87763 18.8129 8.79639C18.8467 8.71515 18.8641 8.62801 18.8641 8.54C18.8641 8.45199 18.8467 8.36486 18.8129 8.28362C18.779 8.20238 18.7294 8.12864 18.6669 8.06667Z" fill="#008716"/>
</svg>
