<svg xmlns="http://www.w3.org/2000/svg" width="15.928" height="19" viewBox="0 0 15.928 19">
  <path id="تلگرام" d="M17.464,3.125a.485.485,0,0,0-.611-.136L2.134,10.77a.942.942,0,0,0-.006,1.513L5.469,14.1l1.618,5.981a.749.749,0,0,0,.324.455.4.4,0,0,0,.1.027c.026.018.05.045.082.045.01,0,.016-.013.026-.015s.033.015.049.015a.526.526,0,0,0,.411-.222l1.936-2.476,4.009,3.866a.5.5,0,0,0,.35.152.479.479,0,0,0,.22-.056.791.791,0,0,0,.371-.592l2.7-17.373A.983.983,0,0,0,17.464,3.125Zm-11.6,10.9,6.392-4.751-4.8,5.786s0,0,0,0a.306.306,0,0,0-.062.189v.015s0,0,0,0,0,0,0,0v4.417Zm1.946,5.983a.239.239,0,0,1-.026.022V15.766L9.687,17.6Zm6.774,1.169a.283.283,0,0,1-.132.212.169.169,0,0,1-.2-.035L10.138,17.4s0,0,0,0,0,0-.006,0L7.9,15.233l5.89-7.106a.331.331,0,0,0,.03-.347.165.165,0,0,0-.253-.078L5.609,13.615,2.273,11.8a.335.335,0,0,1,0-.539L17,3.477a.17.17,0,0,1,.218.048.349.349,0,0,1,.071.282Z" transform="translate(-1.75 -2.932)" fill="#14c5e1"/>
</svg>
