<svg id="_1" data-name="1" xmlns="http://www.w3.org/2000/svg" width="27.049" height="25.667" viewBox="0 0 27.049 25.667">
  <path id="Path_198" data-name="Path 198" d="M143.3,73.667a2.967,2.967,0,0,1-.887-.135,2.8,2.8,0,0,1-2.008-2.748,6.28,6.28,0,0,0-.665-3.044A5.348,5.348,0,0,0,137,65.366a1.017,1.017,0,1,1,.793-1.873,7.307,7.307,0,0,1,4.644,7.306.831.831,0,0,0,1.511.474,6.076,6.076,0,0,0,.218-5.96,1.015,1.015,0,0,1,.888-1.507h9.582a.962.962,0,0,0,0-1.923h-1.384a1.015,1.015,0,0,1,0-2.03.961.961,0,1,0,0-1.923h-1.383a1.015,1.015,0,0,1,0-2.03.961.961,0,0,0,0-1.923h-1.383a1.015,1.015,0,0,1,0-2.03.961.961,0,1,0,0-1.923h-5.862a7.556,7.556,0,0,0-2.643.474l-4.567,1.7a1.015,1.015,0,0,1-.707-1.9l4.567-1.7a9.573,9.573,0,0,1,3.35-.6h5.862a2.994,2.994,0,0,1,2.706,4.262,3,3,0,0,1,1.383,3.953,3,3,0,0,1,1.383,3.952,2.991,2.991,0,0,1-1.325,5.672h-8.094a7.653,7.653,0,0,1-.912,6.577A2.788,2.788,0,0,1,143.3,73.667Z" transform="translate(-130.572 -48)" fill="#b8adad"/>
  <path id="Path_199" data-name="Path 199" d="M60.954,86.152H55.145a1.015,1.015,0,0,1-1.015-1.015V71.225a1.015,1.015,0,0,1,1.015-1.015h5.809a1.015,1.015,0,0,1,1.015,1.015V85.137A1.015,1.015,0,0,1,60.954,86.152Zm-4.793-2.03h3.778V72.24H56.16Z" transform="translate(-54.13 -68.707)" fill="#b8adad"/>
</svg>
