<svg id="Group_1828" data-name="Group 1828" xmlns="http://www.w3.org/2000/svg" width="20.5" height="20.5" viewBox="0 0 20.5 20.5">
  <g id="Group_1827" data-name="Group 1827">
    <path id="Path_204" data-name="Path 204" d="M12.25,2A10.25,10.25,0,1,0,22.5,12.25,10.258,10.258,0,0,0,12.25,2Zm0,18.792a8.542,8.542,0,1,1,8.542-8.542A8.545,8.545,0,0,1,12.25,20.792Z" transform="translate(-2 -2)" fill="#2dd2d2"/>
  </g>
  <path id="Path_205" data-name="Path 205" d="M10.092,4.587A3.414,3.414,0,0,0,6.129,6.825.842.842,0,0,0,6.675,7.9a.865.865,0,0,0,1.076-.564A1.734,1.734,0,0,1,9.7,6.244a1.711,1.711,0,0,1,1.2,1.879A1.675,1.675,0,0,1,9.118,9.439a.852.852,0,0,0-.957.854l-.017,2.665A.846.846,0,0,0,9,13.812H9a.846.846,0,0,0,.854-.854L9.87,11.1a3.454,3.454,0,0,0,2.716-2.682A3.425,3.425,0,0,0,10.092,4.587Z" transform="translate(0.893 -0.23)" fill="#2dd2d2"/>
</svg>
