<svg xmlns="http://www.w3.org/2000/svg" width="18.75" height="17.228" viewBox="0 0 18.75 17.228">
  <g id="Group_1703" data-name="Group 1703" transform="translate(0 0)">
    <path id="Path_154" data-name="Path 154" d="M6.5,11.723,12.717,5.5a1.449,1.449,0,0,0-2.043-2.043L3.43,10.7a1.449,1.449,0,0,0,0,2.043l7.244,7.244a1.449,1.449,0,0,0,2.043-2.043Z" transform="translate(-3.008 -3.109)" fill="#a49d9d"/>
    <g id="Group_1502" data-name="Group 1502" transform="translate(8.693)">
      <path id="Path_155" data-name="Path 155" d="M18.5,11.723,24.717,5.5a1.449,1.449,0,0,0-2.043-2.043L15.43,10.7a1.449,1.449,0,0,0,0,2.043l7.244,7.244a1.449,1.449,0,0,0,2.043-2.043Z" transform="translate(-15.008 -3.109)" fill="#a49d9d"/>
    </g>
  </g>
</svg>
