<svg id="Group_1826" data-name="Group 1826" xmlns="http://www.w3.org/2000/svg" width="27.733" height="26" viewBox="0 0 27.733 26">
  <path id="Fill-4_2_" d="M-36.567-505.269c0-1.849-1.444-2.831-3.467-2.831h-5.836a17.853,17.853,0,0,0,.636-4.333c0-5.027-1.387-6.067-2.6-6.067a3.5,3.5,0,0,0-2.2.578.835.835,0,0,0-.4.578l-.867,4.68c-.924,2.484-3.293,4.622-5.2,6.067v12.364a5.233,5.233,0,0,1,2.2.751,6.776,6.776,0,0,0,3,.924h8.262a2.931,2.931,0,0,0,3-2.6,2.166,2.166,0,0,0-.058-.636,2.568,2.568,0,0,0,1.791-2.369,3.013,3.013,0,0,0-.289-1.329,2.841,2.841,0,0,0,1.329-2.138,2.411,2.411,0,0,0-.578-1.444,2.938,2.938,0,0,0,1.271-2.2Zm-1.791,0c0,1.1-1.156,1.213-1.329,1.733-.173.578.693.809.693,1.849,0,1.1-1.329,1.1-1.5,1.618-.231.636.4.867.4,1.907v.173c-.173.867-1.5.924-1.733,1.271-.231.4.058.636.058,1.56,0,.52-.578.867-1.271.867H-51.3a5.233,5.233,0,0,1-2.2-.751,9.758,9.758,0,0,0-2.138-.867V-505.1c2.138-1.618,4.911-4.1,6.009-7.107,0-.058,0-.116.058-.116l.809-4.333a2.406,2.406,0,0,1,.982-.116c.173,0,.867,1.04.867,4.333A15.978,15.978,0,0,1-47.6-508.1h-.231a.889.889,0,0,0-.867.867.889.889,0,0,0,.867.867h7.8c.867,0,1.676.4,1.676,1.1Z" transform="translate(64.3 518.5)" fill="#9f9f9f"/>
  <path id="Fill-6_2_" d="M-63.067-492.5h-5.2A1.7,1.7,0,0,1-70-494.233v-12.133a1.7,1.7,0,0,1,1.733-1.733h5.2a1.7,1.7,0,0,1,1.733,1.733v12.133a1.7,1.7,0,0,1-1.733,1.733Zm-5.2-13.867v12.133h5.2v-12.133ZM-70-518.5" transform="translate(70 518.5)" fill="#9f9f9f"/>
</svg>
