<svg xmlns="http://www.w3.org/2000/svg" width="29.713" height="27" viewBox="0 0 29.713 27">
  <path id="Icon_awesome-box" data-name="Icon awesome-box" d="M28.527,9.374,25.694,1.666A2.671,2.671,0,0,0,23.146,0H15.229V9.75H28.594A2.122,2.122,0,0,0,28.527,9.374ZM13.437,0H5.521A2.671,2.671,0,0,0,2.973,1.666L.14,9.374a2.122,2.122,0,0,0-.067.376H13.437ZM0,11.375V23.563A2.572,2.572,0,0,0,2.687,26H25.979a2.572,2.572,0,0,0,2.687-2.437V11.375Z" transform="translate(0.523 0.5)" fill="none" stroke="#767e80" stroke-width="1"/>
</svg>
