<svg xmlns="http://www.w3.org/2000/svg" width="22.502" height="17.413" viewBox="0 0 22.502 17.413">
  <path id="Icon_awesome-youtube" data-name="Icon awesome-youtube" d="M22.1,7.068a2.829,2.829,0,0,0-1.9-2.077C18.525,4.5,11.8,4.5,11.8,4.5s-6.724,0-8.4.491A2.829,2.829,0,0,0,1.5,7.068a33.345,33.345,0,0,0-.449,5.655A33.345,33.345,0,0,0,1.5,18.378a2.782,2.782,0,0,0,1.9,2.044c1.677.491,8.4.491,8.4.491s6.724,0,8.4-.491a2.782,2.782,0,0,0,1.9-2.044,33.345,33.345,0,0,0,.449-5.655A33.345,33.345,0,0,0,22.1,7.068ZM9.6,16.194V9.252l5.62,3.471L9.6,16.194Z" transform="translate(-0.55 -4)" fill="none" stroke="#7e8b8b" stroke-width="1"/>
</svg>
