<svg xmlns="http://www.w3.org/2000/svg" width="20.123" height="19.202" viewBox="0 0 20.123 19.202">
  <path id="Icon_awesome-instagram" data-name="Icon awesome-instagram" d="M10.058,6.916A5.037,5.037,0,0,0,4.9,11.839a5.037,5.037,0,0,0,5.158,4.923,5.037,5.037,0,0,0,5.158-4.923A5.037,5.037,0,0,0,10.058,6.916Zm0,8.124a3.286,3.286,0,0,1-3.353-3.2,3.283,3.283,0,0,1,3.353-3.2,3.283,3.283,0,0,1,3.353,3.2A3.286,3.286,0,0,1,10.058,15.039Zm6.572-8.325a1.2,1.2,0,1,1-1.2-1.148A1.174,1.174,0,0,1,16.631,6.714ZM20.047,7.88a5.541,5.541,0,0,0-1.625-4.023,6.155,6.155,0,0,0-4.215-1.551c-1.661-.09-6.64-.09-8.3,0A6.147,6.147,0,0,0,1.691,3.852,5.56,5.56,0,0,0,.065,7.875c-.094,1.585-.094,6.337,0,7.922a5.541,5.541,0,0,0,1.625,4.023,6.163,6.163,0,0,0,4.215,1.551c1.661.09,6.64.09,8.3,0a6.115,6.115,0,0,0,4.215-1.551A5.578,5.578,0,0,0,20.047,15.8c.094-1.585.094-6.333,0-7.918ZM17.9,17.5a3.322,3.322,0,0,1-1.912,1.825c-1.324.5-4.467.386-5.93.386s-4.61.111-5.93-.386A3.322,3.322,0,0,1,2.216,17.5c-.525-1.264-.4-4.263-.4-5.66s-.117-4.4.4-5.66A3.322,3.322,0,0,1,4.128,4.353c1.324-.5,4.467-.386,5.93-.386s4.61-.111,5.93.386A3.322,3.322,0,0,1,17.9,6.179c.525,1.264.4,4.263.4,5.66S18.426,16.239,17.9,17.5Z" transform="translate(0.005 -2.238)" fill="#727f7f"/>
</svg>
