<svg xmlns="http://www.w3.org/2000/svg" width="16" height="15.682" viewBox="0 0 16 15.682">
  <path id="Icon_awesome-user-alt" data-name="Icon awesome-user-alt" d="M7.5,8.259a4.176,4.176,0,0,0,4.219-4.129A4.176,4.176,0,0,0,7.5,0,4.176,4.176,0,0,0,3.281,4.129,4.176,4.176,0,0,0,7.5,8.259Zm3.75.918H9.636a5.2,5.2,0,0,1-4.271,0H3.75A3.711,3.711,0,0,0,0,12.847v.459a1.392,1.392,0,0,0,1.406,1.376H13.594A1.392,1.392,0,0,0,15,13.306v-.459A3.711,3.711,0,0,0,11.25,9.176Z" transform="translate(0.5 0.5)" fill="none" stroke="#0d0101" stroke-linejoin="round" stroke-width="1"/>
</svg>
