<svg xmlns="http://www.w3.org/2000/svg" width="20" height="20" viewBox="0 0 20 20">
  <path id="اینستاگرام" d="M62.325,50.775a1.157,1.157,0,1,1-1.157-1.157,1.157,1.157,0,0,1,1.157,1.157ZM66,56v.015l-.066,4.2a5.79,5.79,0,0,1-5.724,5.724L56,66h-.015l-4.2-.066a5.79,5.79,0,0,1-5.724-5.724L46,56v-.015l.066-4.2a5.79,5.79,0,0,1,5.724-5.724L56,46h.015l4.2.066a5.79,5.79,0,0,1,5.724,5.724Zm-1.862,0-.065-4.181a3.936,3.936,0,0,0-3.891-3.891L56,47.863l-4.181.065a3.936,3.936,0,0,0-3.891,3.891L47.863,56l.065,4.181a3.936,3.936,0,0,0,3.891,3.891L56,64.137l4.181-.065a3.936,3.936,0,0,0,3.891-3.891Zm-3,0A5.135,5.135,0,1,1,56,50.865,5.135,5.135,0,0,1,61.135,56Zm-1.862,0c0-1.808-3.273-3.273-3.273-3.273S52.727,54.192,52.727,56a3.273,3.273,0,1,0,6.546,0Z" transform="translate(-46 -46)"/>
</svg>
