<svg xmlns="http://www.w3.org/2000/svg" width="20" height="20" viewBox="0 0 20 20">
  <g id="Layer_21" data-name="Layer 21" transform="translate(-2.007 -5.005)">
    <path id="Path_95" data-name="Path 95" d="M17.721,24a.654.654,0,0,1-.443-.183l-4.673-4.359a1.506,1.506,0,0,1-.093.133L9.654,22.929a.65.65,0,0,1-.66.228.761.761,0,0,1-.519-.528L6.432,16.269,2.395,13.911a.865.865,0,0,1-.387-.783.835.835,0,0,1,.452-.734L21.037,4.059a.636.636,0,0,1,.715.142.918.918,0,0,1,.236.833L18.414,23.371a.8.8,0,0,1-.464.6.619.619,0,0,1-.229.033ZM11.7,16.5l5.58,5.209L20.3,6.176,4.481,13.269l2.858,1.667a.8.8,0,0,1,.35.45L9.44,20.837l2.065-2.4-1.358-1.275a.886.886,0,0,1-.286-.658.9.9,0,0,1,.25-.65l5-5a.646.646,0,0,1,1.007.092.933.933,0,0,1-.079,1.175Z" transform="translate(0 1)"/>
  </g>
</svg>
