<svg xmlns="http://www.w3.org/2000/svg" width="8.4" height="8.41" viewBox="0 0 8.4 8.41">
  <g id="Group_1639" data-name="Group 1639" transform="translate(0 0)">
    <path id="Path_138" data-name="Path 138" d="M92.1,96.077a4.2,4.2,0,0,0,4.2-3.991.188.188,0,1,0-.375-.02,3.828,3.828,0,1,1-1.774-3.429l-.422.517,1.212-.122-.122-1.212-.427.525A4.2,4.2,0,1,0,92.1,96.077Z" transform="translate(-87.9 -87.667)" fill="#3cc"/>
    <path id="Path_139" data-name="Path 139" d="M180.374,170.017s0-.005,0-.005,0-.007,0-.012,0-.007,0-.01,0,0,0-.007a.135.135,0,0,0-.018-.033h0l-.795-1.167a.184.184,0,0,0-.155-.082h-2.014a.184.184,0,0,0-.155.082l-.795,1.165h0a.207.207,0,0,0-.017.033s0,.005,0,.007a.015.015,0,0,0,0,.01c0,.005,0,.008,0,.012s0,.005,0,.005a.193.193,0,0,0-.005.037h0v2.822a.189.189,0,0,0,.187.187h3.6a.189.189,0,0,0,.187-.187v-2.819h0A.165.165,0,0,0,180.374,170.017Zm-2.891-.942H179.3l.537.79h-2.891ZM180,172.689h-3.224v-2.447H180v2.447Z" transform="translate(-174.188 -166.675)" fill="#3cc"/>
  </g>
</svg>
