<svg xmlns="http://www.w3.org/2000/svg" width="21.587" height="24.218" viewBox="0 0 21.587 24.218">
  <path id="icons8-whatsapp" d="M12.793,2C6.838,2,2,7.428,2,14.109a13.163,13.163,0,0,0,1.4,5.9L2.017,25.549a.572.572,0,0,0,.115.508.437.437,0,0,0,.449.145L7.73,24.771a9.814,9.814,0,0,0,5.063,1.447,10.2,10.2,0,0,0,2.847-.427c4.435-1.207,7.947-5.99,7.947-11.682C23.587,7.428,18.749,2,12.793,2Zm0,1.053c5.448,0,9.855,4.944,9.855,11.056s-4.407,11.056-9.855,11.056a8.988,8.988,0,0,1-4.8-1.4.425.425,0,0,0-.342-.051L3.138,24.963l1.209-4.839a.583.583,0,0,0-.047-.41,12.028,12.028,0,0,1-1.362-5.605C2.939,8,7.345,3.053,12.793,3.053ZM8.871,7.791a1.422,1.422,0,0,0-1.083.552,4.324,4.324,0,0,0-1.1,2.919,6.612,6.612,0,0,0,1.226,3.493h0c-.013-.019.168.275.409.626a16.337,16.337,0,0,0,1,1.313,11.033,11.033,0,0,0,3.513,2.862,15.577,15.577,0,0,0,1.623.664,3.874,3.874,0,0,0,1.955.14,3.11,3.11,0,0,0,1.23-.57,2.47,2.47,0,0,0,1.013-1.232,4.8,4.8,0,0,0,.22-1.084,2.786,2.786,0,0,0,0-.414.79.79,0,0,0-.1-.413c-.219-.4-.466-.413-.724-.556-.143-.08-.552-.3-.961-.522s-.763-.412-.982-.5a1,1,0,0,0-.549-.1.934.934,0,0,0-.622.46c-.132.22-.665.926-.828,1.133l-.052-.03c-.2-.112-.447-.206-.81-.422a6.738,6.738,0,0,1-1.316-1.025h0a8.606,8.606,0,0,1-1.423-1.959c.011-.015,0,0,.022-.023h0c.167-.185.316-.406.441-.568a2.7,2.7,0,0,0,.341-.621A1.292,1.292,0,0,0,11.3,10.9h0c.007.015-.053-.133-.117-.3s-.147-.393-.235-.629c-.176-.473-.372-1-.489-1.314h0a1.338,1.338,0,0,0-.566-.757A.818.818,0,0,0,9.425,7.8h0C9.251,7.794,9.06,7.791,8.871,7.791Zm0,1.053c.181,0,.359,0,.509.01s.144.009.115-.006.011-.021.1.212c.114.3.311.837.488,1.311.088.237.171.46.236.634s.1.272.143.365h0c.041.09.037.032.023.064a1.581,1.581,0,0,1-.213.4c-.153.2-.308.417-.39.508a1.031,1.031,0,0,0-.2,1.269,9.541,9.541,0,0,0,1.635,2.254,7.713,7.713,0,0,0,1.5,1.167c.417.247.756.391.832.433a.961.961,0,0,0,.607.147.9.9,0,0,0,.553-.347h0c.167-.213.665-.85.9-1.243.01,0,.007,0,.086.033h0c.036.014.49.242.895.459s.815.441.949.515c.193.107.284.177.307.177a1.384,1.384,0,0,1,0,.173,3.7,3.7,0,0,1-.168.817,1.9,1.9,0,0,1-.632.7,2.755,2.755,0,0,1-.866.417,3.012,3.012,0,0,1-1.536-.1,14.615,14.615,0,0,1-1.536-.628,10.186,10.186,0,0,1-3.2-2.618,15.33,15.33,0,0,1-.938-1.231c-.225-.328-.323-.5-.405-.62h0a6.059,6.059,0,0,1-1.036-2.856,2.919,2.919,0,0,1,.845-2.2A.531.531,0,0,1,8.871,8.844Z" transform="translate(-2 -2)" fill="#0cbf8e"/>
</svg>
