<svg xmlns="http://www.w3.org/2000/svg" width="12.833" height="15.309" viewBox="0 0 12.833 15.309">
  <path id="icons8-whatsapp" d="M8.417,2C4.876,2,2,5.431,2,9.654a8.752,8.752,0,0,0,.833,3.73l-.822,3.5a.379.379,0,0,0,.068.321.251.251,0,0,0,.267.091l3.061-.9a5.58,5.58,0,0,0,3.01.915c3.54,0,6.417-3.431,6.417-7.654S11.957,2,8.417,2Zm0,.666c3.239,0,5.859,3.125,5.859,6.989s-2.62,6.989-5.859,6.989a5.114,5.114,0,0,1-2.856-.887.24.24,0,0,0-.2-.033l-2.68.792L3.4,13.457a.39.39,0,0,0-.028-.259,7.993,7.993,0,0,1-.81-3.543C2.558,5.791,5.178,2.666,8.417,2.666Zm-2.332,3a.828.828,0,0,0-.644.349A2.824,2.824,0,0,0,4.79,7.855a4.338,4.338,0,0,0,.729,2.208h0c-.007-.012.1.174.243.4s.343.514.6.83A6.662,6.662,0,0,0,8.446,13.1a8.952,8.952,0,0,0,.965.42,2.172,2.172,0,0,0,1.162.088,1.8,1.8,0,0,0,.731-.36,1.544,1.544,0,0,0,.6-.779,3.2,3.2,0,0,0,.131-.685,1.872,1.872,0,0,0,0-.262.525.525,0,0,0-.062-.261c-.13-.254-.277-.261-.43-.352-.085-.05-.328-.192-.572-.33s-.454-.261-.584-.316a.566.566,0,0,0-.326-.066.559.559,0,0,0-.37.291c-.079.139-.4.585-.492.716l-.031-.019c-.119-.071-.266-.13-.482-.267a4.046,4.046,0,0,1-.782-.648h0A5.45,5.45,0,0,1,7.063,9.03c.007-.009,0,0,.013-.014h0c.1-.117.188-.256.262-.359a1.743,1.743,0,0,0,.2-.393.864.864,0,0,0-.014-.638h0c0,.01-.031-.084-.07-.192s-.087-.248-.139-.4c-.1-.3-.221-.634-.29-.831h0a.841.841,0,0,0-.337-.478.461.461,0,0,0-.277-.058h0C6.311,5.662,6.2,5.661,6.085,5.661Zm0,.666c.108,0,.214,0,.3.006s.086.006.068,0,.006-.013.058.134c.068.192.185.529.29.829.052.15.1.291.141.4s.06.172.085.231h0c.024.057.022.02.014.04a1.021,1.021,0,0,1-.126.255c-.091.125-.183.264-.232.321a.721.721,0,0,0-.168.281.754.754,0,0,0,.052.521,6.044,6.044,0,0,0,.972,1.425,4.632,4.632,0,0,0,.891.738c.248.156.45.247.495.274a.545.545,0,0,0,.361.093.529.529,0,0,0,.329-.219h0c.1-.135.4-.538.537-.786.006,0,0,0,.051.021h0c.022.009.291.153.532.29s.485.279.564.326c.114.068.169.112.183.112a.93.93,0,0,1,0,.109,2.469,2.469,0,0,1-.1.517,1.182,1.182,0,0,1-.375.443,1.6,1.6,0,0,1-.515.264,1.689,1.689,0,0,1-.913-.065,8.4,8.4,0,0,1-.913-.4,6.152,6.152,0,0,1-1.9-1.655c-.235-.3-.423-.57-.557-.778s-.192-.316-.241-.392h0a3.976,3.976,0,0,1-.616-1.806,1.9,1.9,0,0,1,.5-1.392A.31.31,0,0,1,6.085,6.326Z" transform="translate(-2 -2)" fill="#00d8ff"/>
</svg>
