<?xml version="1.0" encoding="iso-8859-1"?>
<!-- Generator: Adobe Illustrator 19.0.0, SVG Export Plug-In . SVG Version: 6.00 Build 0)  -->
<svg version="1.1" id="Capa_1" xmlns="http://www.w3.org/2000/svg" xmlns:xlink="http://www.w3.org/1999/xlink" x="0px" y="0px"
	 viewBox="0 0 512 512" style="enable-background:new 0 0 512 512;" xml:space="preserve">
<g>
	<g>
		<path d="M512,255v-36.213l-60.301-60.3C448.385,120.172,416.159,90,377,90h-24.072C358.051,81.167,361,70.925,361,60
			c0-33.084-26.916-60-60-60h-30v15c0,8.271-6.729,15-15,15h-60c-24.813,0-45,20.187-45,45c0,5.258,0.915,10.305,2.58,15H135
			c-39.159,0-71.385,30.172-74.699,68.486L0,218.787V255c0,24.484,11.796,46.262,30,59.959V482H0v30h512v-30h-30V314.959
			C500.204,301.262,512,279.484,512,255z M430.787,180l30,30h-77.376l-22.946-30H430.787z M361,240v15c0,24.813-20.187,45-45,45
			s-45-20.187-45-45v-15H361z M271,210v-30h51.697l22.946,30H271z M196,60h60c19.557,0,36.239-12.539,42.43-30H301
			c16.542,0,30,13.458,30,30s-13.458,30-30,30H196c-8.271,0-15-6.729-15-15S187.729,60,196,60z M135,120c8.952,0,233.045,0,242,0
			c19.557,0,36.239,12.539,42.43,30H92.57C98.761,132.539,115.443,120,135,120z M81.213,180H151l-22.5,30H51.213L81.213,180z
			 M30,255v-15h91v15c0,24.393-21.065,45-46,45C50.187,300,30,279.813,30,255z M241,482H60V328.491
			c4.848,0.988,9.864,1.509,15,1.509c24.186,0,46.442-11.358,60.849-30.253C149.534,318.095,171.402,330,196,330
			c16.871,0,32.456-5.603,45-15.041V482z M241,255c0,24.813-20.187,45-45,45s-45-20.187-45-45v-15h90V255z M241,210h-75l22.5-30H241
			V210z M452,482H271V314.959C283.544,324.397,299.129,330,316,330c24.598,0,46.466-11.905,60.151-30.253
			C390.516,318.587,412.741,330,437,330c5.136,0,10.152-0.521,15-1.509V482z M437,300c-24.935,0-46-20.607-46-45v-15h91v15
			C482,279.813,461.813,300,437,300z"/>
	</g>
</g>
<g>
	<g>
		<rect x="301" y="360" width="30" height="30"/>
	</g>
</g>
<g>
	<g>
		<rect x="181" y="360" width="30" height="30"/>
	</g>
</g>
<g>
</g>
<g>
</g>
<g>
</g>
<g>
</g>
<g>
</g>
<g>
</g>
<g>
</g>
<g>
</g>
<g>
</g>
<g>
</g>
<g>
</g>
<g>
</g>
<g>
</g>
<g>
</g>
<g>
</g>
</svg>
