<?xml version="1.0" ?><svg id="Layer_1" style="enable-background:new 0 0 50 50;" version="1.1" viewBox="0 0 50 50" xml:space="preserve" xmlns="http://www.w3.org/2000/svg" xmlns:xlink="http://www.w3.org/1999/xlink"><g id="Layer_1_1_"><path d="M1,39.117h29v9.766l6-3.6l6,3.6v-9.766h7v-38H1V39.117z M40.265,32.331c-0.09,0.091-0.186,0.175-0.281,0.26   c-0.054,0.048-0.104,0.099-0.16,0.145c-0.062,0.052-0.128,0.096-0.192,0.145c-0.843,0.645-1.859,1.074-2.968,1.197   c-0.018,0.002-0.036,0.006-0.055,0.008c-0.201,0.02-0.405,0.031-0.611,0.031s-0.41-0.011-0.611-0.031   c-0.018-0.002-0.036-0.006-0.055-0.008c-1.109-0.123-2.124-0.552-2.968-1.197c-0.064-0.049-0.13-0.094-0.192-0.145   c-0.055-0.046-0.106-0.097-0.16-0.145c-0.095-0.085-0.19-0.169-0.281-0.26c-1.071-1.084-1.735-2.572-1.735-4.214   c0-3.309,2.691-6,6-6s6,2.691,6,6C42,29.758,41.337,31.246,40.265,32.331z M40,45.351l-4-2.4l-4,2.4v-6.234v-4.07   c0.034,0.02,0.072,0.033,0.107,0.052c0.265,0.148,0.538,0.284,0.82,0.402c0.012,0.005,0.025,0.009,0.038,0.014   c0.937,0.386,1.961,0.602,3.036,0.602s2.099-0.216,3.036-0.602c0.012-0.005,0.025-0.009,0.038-0.014   c0.282-0.118,0.555-0.253,0.82-0.402c0.035-0.019,0.073-0.032,0.107-0.052v4.07v6.234H40z M3,3.117h44v34h-5v-3.726   c1.241-1.41,2-3.253,2-5.274c0-4.411-3.589-8-8-8s-8,3.589-8,8c0,2.021,0.759,3.864,2,5.274v3.726H3V3.117z"/><rect height="2" width="26" x="12" y="7.117"/><rect height="2" width="16" x="17" y="13.117"/><rect height="2" width="11" x="7" y="31.117"/></g></svg>