<svg id="ice-cream" xmlns="http://www.w3.org/2000/svg" width="23" height="23" viewBox="0 0 23 23">
  <g id="Group_1533" data-name="Group 1533">
    <g id="Group_1532" data-name="Group 1532">
      <path id="Path_165" data-name="Path 165" d="M23,11.455V9.828L20.291,7.12a3.373,3.373,0,0,0-3.356-3.077H15.854A2.693,2.693,0,0,0,13.521,0H12.174V.674a.675.675,0,0,1-.674.674H8.8A2.021,2.021,0,0,0,6.9,4.043H6.064A3.373,3.373,0,0,0,2.709,7.119L0,9.828v1.627a3.366,3.366,0,0,0,1.348,2.693v7.5H0V23H23V21.652H21.652v-7.5A3.366,3.366,0,0,0,23,11.455ZM19.352,8.086,20.7,9.434H17.224L16.193,8.086Zm-3.135,2.7v.674a2.021,2.021,0,0,1-4.043,0v-.674ZM12.174,9.434V8.086H14.5l1.031,1.348ZM8.8,2.7h2.7a2.025,2.025,0,0,0,1.906-1.348h.115a1.348,1.348,0,0,1,0,2.7H8.8A.674.674,0,0,1,8.8,2.7Zm-2.74,2.7H16.936a2.025,2.025,0,0,1,1.906,1.348H4.158A2.025,2.025,0,0,1,6.064,5.391Zm-2.416,2.7H6.783L5.772,9.434H2.3Zm-2.3,3.369v-.674H5.436v.674a2.072,2.072,0,0,1-2.066,2.021A2.024,2.024,0,0,1,1.348,11.455Zm9.479,10.2H2.7v-6.9a3.372,3.372,0,0,0,.674.068A3.43,3.43,0,0,0,6.1,13.465a3.364,3.364,0,0,0,4.724.683Zm0-10.2a2.021,2.021,0,0,1-4.043,0v-.674h4.043Zm0-2.021H7.457L8.468,8.086h2.358ZM20.3,21.652H12.174v-7.5a3.364,3.364,0,0,0,4.724-.683,3.429,3.429,0,0,0,2.733,1.359,3.372,3.372,0,0,0,.674-.068Zm-.674-8.176a2.072,2.072,0,0,1-2.066-2.021v-.674h4.088v.674A2.024,2.024,0,0,1,19.631,13.477Z" fill="#b0bec5"/>
    </g>
  </g>
  <g id="Group_1535" data-name="Group 1535" transform="translate(13 16)">
    <g id="Group_1534" data-name="Group 1534" transform="translate(0 0)">
      <rect id="Rectangle_292" data-name="Rectangle 292" width="2" height="2" fill="#b0bec5"/>
    </g>
  </g>
  <g id="Group_1537" data-name="Group 1537" transform="translate(8 16)">
    <g id="Group_1536" data-name="Group 1536" transform="translate(0 0)">
      <rect id="Rectangle_293" data-name="Rectangle 293" width="2" height="2" fill="#b0bec5"/>
    </g>
  </g>
</svg>
