<svg id="Group_54" data-name="Group 54" xmlns="http://www.w3.org/2000/svg" width="119" height="30" viewBox="0 0 119 30">
  <rect id="Rectangle_34" data-name="Rectangle 34" width="28" height="28" transform="translate(91 2)" fill="none"/>
  <path id="Icon_awesome-facebook-f" data-name="Icon awesome-facebook-f" d="M13.621,13.5l.667-4.343H10.12V6.338a2.172,2.172,0,0,1,2.449-2.347h1.895V.293A23.105,23.105,0,0,0,11.1,0C7.668,0,5.425,2.08,5.425,5.846v3.31H1.609V13.5H5.425V24h4.7V13.5Z" transform="translate(99.391 2)" fill="none" stroke="#7d7272" stroke-width="1"/>
  <rect id="Rectangle_34-2" data-name="Rectangle 34" width="28" height="28" transform="translate(60 2)" fill="none"/>
  <rect id="Rectangle_34-3" data-name="Rectangle 34" width="28" height="28" transform="translate(32 2)" fill="none"/>
  <rect id="Rectangle_34-4" data-name="Rectangle 34" width="28" height="28" fill="none"/>
  <path id="Icon_awesome-twitter" data-name="Icon awesome-twitter" d="M19.309,7.811c.014.194.014.389.014.583,0,5.931-4.438,12.764-12.549,12.764A12.312,12.312,0,0,1,0,19.145a8.972,8.972,0,0,0,1.065.056,8.739,8.739,0,0,0,5.476-1.917,4.429,4.429,0,0,1-4.124-3.111,5.471,5.471,0,0,0,.833.069,4.591,4.591,0,0,0,1.161-.153,4.468,4.468,0,0,1-3.537-4.4V9.631a4.386,4.386,0,0,0,1.994.569A4.544,4.544,0,0,1,1.5,4.2,12.469,12.469,0,0,0,10.6,8.895a5.148,5.148,0,0,1-.109-1.028A4.447,4.447,0,0,1,14.9,3.381,4.366,4.366,0,0,1,18.121,4.8a8.6,8.6,0,0,0,2.8-1.083,4.461,4.461,0,0,1-1.939,2.472,8.725,8.725,0,0,0,2.54-.694,9.571,9.571,0,0,1-2.212,2.319Z" transform="translate(71.479 3.619)" fill="none" stroke="#7d7272" stroke-width="1"/>
  <path id="Icon_awesome-youtube" data-name="Icon awesome-youtube" d="M22.1,7.068a2.829,2.829,0,0,0-1.9-2.077C18.525,4.5,11.8,4.5,11.8,4.5s-6.724,0-8.4.491A2.829,2.829,0,0,0,1.5,7.068a33.345,33.345,0,0,0-.449,5.655A33.345,33.345,0,0,0,1.5,18.378a2.782,2.782,0,0,0,1.9,2.044c1.677.491,8.4.491,8.4.491s6.724,0,8.4-.491a2.782,2.782,0,0,0,1.9-2.044,33.345,33.345,0,0,0,.449-5.655A33.345,33.345,0,0,0,22.1,7.068ZM9.6,16.194V9.252l5.62,3.471L9.6,16.194Z" transform="translate(37.448 1.5)" fill="none" stroke="#7e8b8b" stroke-width="1"/>
  <path id="Icon_awesome-instagram" data-name="Icon awesome-instagram" d="M10.058,6.916A5.037,5.037,0,0,0,4.9,11.839a5.037,5.037,0,0,0,5.158,4.923,5.037,5.037,0,0,0,5.158-4.923A5.037,5.037,0,0,0,10.058,6.916Zm0,8.124a3.286,3.286,0,0,1-3.353-3.2,3.283,3.283,0,0,1,3.353-3.2,3.283,3.283,0,0,1,3.353,3.2A3.286,3.286,0,0,1,10.058,15.039Zm6.572-8.325a1.2,1.2,0,1,1-1.2-1.148A1.174,1.174,0,0,1,16.631,6.714ZM20.047,7.88a5.541,5.541,0,0,0-1.625-4.023,6.155,6.155,0,0,0-4.215-1.551c-1.661-.09-6.64-.09-8.3,0A6.147,6.147,0,0,0,1.691,3.852,5.56,5.56,0,0,0,.065,7.875c-.094,1.585-.094,6.337,0,7.922a5.541,5.541,0,0,0,1.625,4.023,6.163,6.163,0,0,0,4.215,1.551c1.661.09,6.64.09,8.3,0a6.115,6.115,0,0,0,4.215-1.551A5.578,5.578,0,0,0,20.047,15.8c.094-1.585.094-6.333,0-7.918ZM17.9,17.5a3.322,3.322,0,0,1-1.912,1.825c-1.324.5-4.467.386-5.93.386s-4.61.111-5.93-.386A3.322,3.322,0,0,1,2.216,17.5c-.525-1.264-.4-4.263-.4-5.66s-.117-4.4.4-5.66A3.322,3.322,0,0,1,4.128,4.353c1.324-.5,4.467-.386,5.93-.386s4.61-.111,5.93.386A3.322,3.322,0,0,1,17.9,6.179c.525,1.264.4,4.263.4,5.66S18.426,16.239,17.9,17.5Z" transform="translate(8.882 2.338)" fill="#727f7f"/>
</svg>
